# xmcd
#
# Track frame offsets: 
# 150
# 23335
# 42208
# 58663
# 81538
# 101925
# 124173
# 146733
# 159573
# 180295
# 199565
# 216015
# 231203
# 257010
# 275150
# 295728
# 314809
# 334923
#
# Disc length: 4729 seconds
# Submitted via: tkcNetwork 1.0
# Revision: 0
# Processed by: cddbd v1.5.2PL0 Copyright (c) Steve Scherf et al.
#
DISCID=11127712
DTITLE=Various Artist - While My Guitar Gently Weeps [CD2)
DYEAR=1900
DGENRE=
TTITLE0=The Jeff Healey Band - While My Guitar Gently Weeps
TTITLE1=Gary Moore - Still Got The Blues
TTITLE2=Fleetwood Mac - Big Love
TTITLE3=Chris Rea - On The Beach
TTITLE4=Santana - Samba Pa Ti
TTITLE5=Toto - I Won't Hold You Back
TTITLE6=Robert Plant - Big Log
TTITLE7=J.J. Cale - Cocaine
TTITLE8=Boston - More Than A Feeling
TTITLE9=Robert Cray - Right Next Door
TTITLE10=Nils Lofgren - Shine Silently
TTITLE11=REO Speedwagon - Keep On Loving You
TTITLE12=Jeff Beck - Cause We've Ended Up As Lovers
TTITLE13=John Waite - Missing You
TTITLE14=Peter Frampton - Show Me The Way
TTITLE15=Walter Trout Band - Time For Movin' On
TTITLE16=Gerry Rafferty - Right Down The Line
TTITLE17=Ry Cooder - Crossroads
EXTD=
EXTT0=
EXTT1=
EXTT2=
EXTT3=
EXTT4=
EXTT5=
EXTT6=
EXTT7=
EXTT8=
EXTT9=
EXTT10=
EXTT11=
EXTT12=
EXTT13=
EXTT14=
EXTT15=
EXTT16=
EXTT17=
PLAYORDER=
